# xmcd
#
# Track frame offsets:
#	150
#	20105
#	39215
#	58860
#	79480
#	97842
#	118722
#	138060
#	158190
#
# Disc length: 2284 seconds
#
# Revision: 2
# Processed by: cddbd v1.5.2PL0 Copyright (c) Steve Scherf et al.
# Submitted via: EasyCDDAExtractor 15.3.0.1
#
DISCID=6e08ea09
DTITLE=Daniela Droz - Cosas De Mujeres
DYEAR=1999
DGENRE=Latin
TTITLE0=Me Engañas
TTITLE1=Dama De Hierro
TTITLE2=Sin El
TTITLE3=Debo Contar Hasta Diez
TTITLE4=Como Decir Adios
TTITLE5=Hasta Hoy
TTITLE6=Veneno
TTITLE7=Debo Contar Hasta Diez (Version Bolero)
TTITLE8=Mar Y Cielo
EXTD=
EXTT0=
EXTT1=
EXTT2=
EXTT3=
EXTT4=
EXTT5=
EXTT6=
EXTT7=
EXTT8=
PLAYORDER=
